<svg xmlns="http://www.w3.org/2000/svg" viewBox="0 0 24 24">
  <rect x="1" y="1" width="22" height="22" rx="5" fill="#0b6e2f"/>
  <g transform="translate(12,13) scale(0.72) translate(-12,-12)">
    <g transform="translate(0,24) scale(1,-1)">
      <path fill="#ffffff" d="M12,21.35l-1.45-1.32C5.4,15.36,2,12.28,2,8.5 2,5.42,4.42,3,7.5,3c1.74,0,3.41,0.81,4.5,2.09C13.09,3.81,14.76,3,16.5,3 19.58,3,22,5.42,22,8.5c0,3.78-3.4,6.86-8.55,11.54L12,21.35z"/>
    </g>
    <path fill="#ffffff" d="M10,17.5 C10,17.5 9,21 6.5,22.5 L17.5,22.5 C15,21 14,17.5 14,17.5 Z"/>
  </g>
</svg>
